<svg xmlns="http://www.w3.org/2000/svg" xmlns:xlink="http://www.w3.org/1999/xlink" width="600" zoomAndPan="magnify" viewBox="0 0 450 449.999984" height="600" preserveAspectRatio="xMidYMid meet" version="1.0"><defs><clipPath id="a26f075e18"><path d="M 182 284 L 259 284 L 259 360.980469 L 182 360.980469 Z M 182 284 " clip-rule="nonzero"/></clipPath><clipPath id="9d0f210747"><path d="M 18.304688 77.480469 L 95 77.480469 L 95 154 L 18.304688 154 Z M 18.304688 77.480469 " clip-rule="nonzero"/></clipPath><clipPath id="5925de96ea"><path d="M 127 77.480469 L 291.304688 77.480469 L 291.304688 242 L 127 242 Z M 127 77.480469 " clip-rule="nonzero"/></clipPath></defs><g clip-path="url(#a26f075e18)"><path fill="#000000" d="M 220.324219 284.632812 C 199.21875 284.632812 182.105469 301.726562 182.105469 322.785156 C 182.105469 343.867188 199.21875 360.9375 220.324219 360.9375 C 241.433594 360.9375 258.546875 343.867188 258.546875 322.785156 C 258.546875 301.726562 241.433594 284.632812 220.324219 284.632812 Z M 220.324219 350.039062 C 205.265625 350.039062 193.027344 337.820312 193.027344 322.785156 C 193.027344 307.753906 205.265625 295.535156 220.324219 295.535156 C 235.382812 295.535156 247.625 307.753906 247.625 322.785156 C 247.625 337.820312 235.382812 350.039062 220.324219 350.039062 Z M 220.324219 350.039062 " fill-opacity="1" fill-rule="nonzero"/></g><g clip-path="url(#9d0f210747)"><path fill="#000000" d="M 56.527344 77.523438 C 35.417969 77.523438 18.304688 94.617188 18.304688 115.675781 C 18.304688 136.757812 35.417969 153.828125 56.527344 153.828125 C 77.632812 153.828125 94.746094 136.757812 94.746094 115.675781 C 94.746094 94.617188 77.632812 77.523438 56.527344 77.523438 Z M 56.527344 142.925781 C 41.46875 142.925781 29.226562 130.707031 29.226562 115.675781 C 29.226562 100.644531 41.46875 88.425781 56.527344 88.425781 C 71.585938 88.425781 83.824219 100.644531 83.824219 115.675781 C 83.824219 130.707031 71.585938 142.925781 56.527344 142.925781 Z M 56.527344 142.925781 " fill-opacity="1" fill-rule="nonzero"/></g><path fill="#000000" d="M 132.964844 295.535156 C 105.875 295.535156 83.824219 273.539062 83.824219 246.484375 C 83.824219 222.066406 101.84375 201.921875 125.289062 198.214844 C 123.707031 194.804688 122.273438 191.316406 121.105469 187.71875 C 93.652344 193.234375 72.90625 217.488281 72.90625 246.484375 C 72.90625 279.542969 99.855469 306.4375 132.964844 306.4375 C 164.765625 306.4375 190.808594 281.613281 192.828125 250.375 C 189.136719 249.6875 185.492188 248.878906 181.976562 247.800781 C 181.253906 274.222656 159.609375 295.535156 132.964844 295.535156 Z M 132.964844 295.535156 " fill-opacity="1" fill-rule="nonzero"/><path fill="#000000" d="M 94.746094 246.484375 C 94.746094 249.503906 97.191406 251.933594 100.207031 251.933594 C 103.21875 251.933594 105.664062 249.503906 105.664062 246.484375 C 105.664062 231.449219 117.90625 219.230469 132.964844 219.230469 C 134.648438 219.230469 136.101562 218.425781 137.105469 217.226562 C 134.867188 214.476562 132.835938 211.546875 130.933594 208.539062 C 110.820312 209.628906 94.746094 226.152344 94.746094 246.484375 Z M 94.746094 246.484375 " fill-opacity="1" fill-rule="nonzero"/><g clip-path="url(#5925de96ea)"><path fill="#000000" d="M 209.40625 77.523438 C 164.164062 77.523438 127.507812 114.117188 127.507812 159.277344 C 127.507812 204.4375 164.164062 241.03125 209.40625 241.03125 C 254.648438 241.03125 291.304688 204.4375 291.304688 159.277344 C 291.304688 114.117188 254.648438 77.523438 209.40625 77.523438 Z M 209.40625 230.132812 C 170.269531 230.132812 138.425781 198.34375 138.425781 159.277344 C 138.425781 120.210938 170.269531 88.425781 209.40625 88.425781 C 248.542969 88.425781 280.386719 120.210938 280.386719 159.277344 C 280.386719 198.34375 248.542969 230.132812 209.40625 230.132812 Z M 209.40625 230.132812 " fill-opacity="1" fill-rule="nonzero"/></g><path fill="#000000" d="M 154.804688 164.726562 C 151.792969 164.726562 149.347656 162.296875 149.347656 159.277344 C 149.347656 126.214844 176.285156 99.324219 209.40625 99.324219 C 212.417969 99.324219 214.867188 101.777344 214.867188 104.773438 C 214.867188 107.792969 212.417969 110.226562 209.40625 110.226562 C 182.3125 110.226562 160.265625 132.234375 160.265625 159.277344 C 160.265625 162.296875 157.820312 164.726562 154.804688 164.726562 Z M 154.804688 164.726562 " fill-opacity="1" fill-rule="nonzero"/></svg>